:SAMPLES-PER-SECOND 30
:FULLY-SPECIFIED
:DEGREES
1035
root  -14.4989 34.5512 23.2249 -123.079 -8.36783 -131.121
Spine  22.108 17.2257 33.3254
Spine1  19.987 -30.6571 -40.624
Neck  3.97569e-016 0 -2.38542e-015
Head  2.01324 7.9009 27.3131
R_Clavicle  0.875832 7.25768 4.01055
R_UpperArm  94.1177 12.4223 70.1027
R_Forearm  42.1214 10.7757 -9.12215
R_Hand  -8.09068 11.1388 -63.114
L_Clavicle  -5.42358 0.867903 39.4241
L_UpperArm  -46.5852 -66.3269 9.52651
L_Forearm  47.6843 15.6451 22.7878
L_Hand  10.5584 -28.6042 -48.1919
L_Thigh  -17.6298 28.8585 51.2562
L_Calf  -4.16158 -2.85538 20.8637
L_Foot  1.46285 2.71945 3.49819
L_Toe0  0.505156 0.032532 -6.13611
R_Thigh  6.62531 -47.7159 -20.2794
R_Calf  -6.29241 5.19449 16.0965
R_Foot  5.43807 20.2273 -6.47506
R_Toe0  -1.78853 -0.272788 -17.3235
1036
root  -14.8738 34.9772 22.2716 -142.777 -9.00626 -127.605
Spine  19.8867 15.2023 26.7124
Spine1  18.3163 -23.2185 -39.3059
Neck  3.97569e-016 0 -2.38542e-015
Head  -1.33633 2.58719 26.8139
R_Clavicle  1.08456 6.6124 4.73175
R_UpperArm  101.199 7.66922 72.1971
R_Forearm  39.0855 12.4301 -10.5761
R_Hand  -7.64805 12.0715 -58.4519
L_Clavicle  -8.56995 -6.47774 43.0661
L_UpperArm  -58.1694 -48.1519 28.386
L_Forearm  45.5947 11.4656 17.0617
L_Hand  23.8288 -42.5852 -59.8146
L_Thigh  -15.3899 32.3013 39.2599
L_Calf  -5.88548 -4.58387 31.7576
L_Foot  3.00154 8.13407 3.64641
L_Toe0  0.505156 0.0327111 -6.13611
R_Thigh  9.94802 -39.5368 -28.3523
R_Calf  -8.59181 10.2387 34.2641
R_Foot  6.35359 30.4229 -16.8633
R_Toe0  -1.78853 -0.272788 -17.3235
1037
root  -15.5956 35.7007 21.8308 -164.867 -7.92871 -127.597
Spine  16.8528 12.1402 18.144
Spine1  15.6758 -15.5322 -38.0905
Neck  3.97569e-016 0 -2.38542e-015
Head  -2.39985 -2.42626 24.8466
R_Clavicle  1.25636 10.5331 5.35648
R_UpperArm  103.15 8.09828 73.1275
R_Forearm  35.3902 12.5454 -10.6789
R_Hand  -8.51335 15.8642 -56.3059
L_Clavicle  -12.1047 -13.6493 46.865
L_UpperArm  -58.7907 -18.8462 42.3407
L_Forearm  44.0657 -1.4286 3.97957
L_Hand  22.237 -61.8693 -46.424
L_Thigh  -7.40374 37.5069 25.1043
L_Calf  -15.5353 -7.31278 44.1171
L_Foot  3.94444 10.7369 4.42646
L_Toe0  0.505156 0.0328825 -6.13611
R_Thigh  21.2889 -33.633 -31.0092
R_Calf  -12.0704 12.1643 43.3556
R_Foot  5.66178 31.268 -20.944
R_Toe0  -1.78853 -0.272788 -17.3235
1038
root  -16.1756 36.4994 21.8625 172.744 -9.4491 -130.629
Spine  13.4372 8.5469 10.5454
Spine1  12.7028 -10.5534 -38.3967
Neck  3.97569e-016 0 -2.38542e-015
Head  -3.11864 -5.75288 23.9955
R_Clavicle  0.770109 19.3852 2.87837
R_UpperArm  101.041 9.63773 71.2961
R_Forearm  26.2956 10.7769 -9.12488
R_Hand  -7.40514 19.7187 -47.3211
L_Clavicle  -23.4587 -31.7471 56.3132
L_UpperArm  -62.2629 15.3901 33.7935
L_Forearm  53.4522 -8.04535 8.1495
L_Hand  3.37869 -9.30016 7.86397
L_Thigh  -8.52588 39.8788 12.1973
L_Calf  -24.7158 -7.97039 49.7778
L_Foot  4.64319 11.6584 5.8356
L_Toe0  0.505156 0.0330459 -6.13611
R_Thigh  26.2915 -30.9267 -31.5487
R_Calf  -13.3587 12.5122 43.7621
R_Foot  5.96497 29.0806 -17.4538
R_Toe0  -1.78853 -0.272788 -17.3235
1039
root  -16.5032 36.8392 22.1169 151.531 -15.0274 -134.005
Spine  10.8545 7.35867 6.15665
Spine1  11.5247 -11.941 -41.6729
Neck  3.97569e-016 0 -2.38542e-015
Head  -3.60985 -7.35202 25.4804
R_Clavicle  2.29047 26.6843 6.77761
R_UpperArm  98.2725 14.2398 69.3791
R_Forearm  12.8613 5.81801 -4.88304
R_Hand  -5.80621 17.6325 -41.9972
L_Clavicle  -14.8751 -34.7922 34.2165
L_UpperArm  -74.579 -15.7074 48.9569
L_Forearm  10.5264 25.1273 57.8047
L_Hand  -5.68672 -17.4727 -21.9634
L_Thigh  -12.3311 38.0877 4.12491
L_Calf  -30.056 -10.7911 51.5033
L_Foot  5.88633 14.1439 7.4007
L_Toe0  0.505156 0.0332011 -6.13611
R_Thigh  23.5382 -31.3278 -31.0563
R_Calf  -11.2703 12.3292 44.5436
R_Foot  6.08414 27.3546 -14.8855
R_Toe0  -1.78853 -0.272788 -17.3235
1040
root  -16.6188 36.5917 22.3493 131.41 -23.1011 -135.903
Spine  9.46653 8.69054 4.46428
Spine1  12.7903 -17.5405 -47.1132
Neck  3.97569e-016 0 -2.38542e-015
Head  -4.13423 -7.60996 26.521
R_Clavicle  3.45334 23.041 9.98727
R_UpperArm  101.956 28.1862 76.561
R_Forearm  5.09989 -7.47224 6.18418
R_Hand  -5.55085 17.6492 -40.5984
L_Clavicle  -0.111718 19.1234 5.69099
L_UpperArm  -73.5603 -37.7719 126.231
L_Forearm  -51.9658 42.876 66.3066
L_Hand  19.4835 -22.6253 -99.1173
L_Thigh  -12.9941 36.156 2.92811
L_Calf  -28.6524 -11.719 51.0085
L_Foot  6.50683 15.3842 8.10336
L_Toe0  0.505156 0.0333482 -6.13611
R_Thigh  24.5503 -34.2849 -28.0375
R_Calf  -11.6163 12.3779 44.6025
R_Foot  6.24524 25.9824 -11.7897
R_Toe0  -1.78853 -0.272788 -17.3235
1041
root  -16.4319 35.7087 22.5736 111.422 -31.2963 -134.968
Spine  7.12168 8.00092 2.38868
Spine1  12.8064 -21.0709 -49.8683
Neck  3.97569e-016 0 -2.38542e-015
Head  -4.6077 -6.54756 25.6122
R_Clavicle  5.64852 28.0023 14.4111
R_UpperArm  95.2821 24.4117 73.9413
R_Forearm  -16.6592 -18.8606 17.0712
R_Hand  -5.68337 22.4654 -40.4598
L_Clavicle  -0.981629 -4.86741 6.15546
L_UpperArm  -56.0498 -28.2792 84.9266
L_Forearm  -35.5821 36.7877 66.6405
L_Hand  -2.75151 -2.19338 -139.585
L_Thigh  -12.7517 38.2026 4.87227
L_Calf  -25.2721 -10.0251 49.3304
L_Foot  6.02133 14.3526 7.61076
L_Toe0  0.505156 0.0334867 -6.13611
R_Thigh  25.6912 -37.6239 -22.6313
R_Calf  -8.12727 12.2027 41.8531
R_Foot  5.89906 22.3491 -7.97229
R_Toe0  -1.78853 -0.272788 -17.3235
